<svg height="512" viewBox="0 0 512 512" width="512" xmlns="http://www.w3.org/2000/svg"><g><path d="m206.56 270.1q-16.68 4.155-33.22 8.9-39.5 11.31-77.96 25.87c-.02 9.56 2.79 20.04 11.91 22.87a23.191 23.191 0 0 0 25.28-8.82c1.23 7.2 8.31 13.34 15.33 11.27s11.14-10.86 8.26-17.58c7.39-1.68 18.59-2.99 29.79-4.3 11.3-1.3 22.6-2.61 30.05-4.31l8 31.99v.01c-.29 0-24 48-24 48s3.62 48.92 8 64c0 0-1.7 2.9-3.83 6.88-2.7 5.02-6.1 11.76-7.67 16.61-.05.17-.11.34-.16.51-1.02 3.33-1.63 7.18.5 9.87 2.59 3.28 7.62 2.92 11.66 1.87 6.83-1.78 11.79-6.12 15.79-11.72a89.515 89.515 0 0 0 8.54-16.02c2.39-5.43 4.63-10.98 7.17-16-.16-.64-.3-1.29-.43-1.96-2.47-12.72.43-30.84.43-46.04 8.32-12.21 20.97-22.35 32-24 13.23 0 27.34 2.63 40.29 6.14a288.383 288.383 0 0 1 47.71 17.86c4.46 10.33 6.26 18.37 16 24l48-32c0-8-18.93-8-24-8h-16c-.29-.19-.59-.38-.88-.58-13.55-8.93-30-23.3-48.71-32.01-8.91-4.13-18.33-6.99-28.19-7.36h-.01c-.74-.04-1.47-.05-2.21-.05 0-24 0-32 9.12-47.13 13.63-4.34 27.25-7.98 40.88-11.71 10.61-2.91 21.23-5.87 31.86-9.25-.71 6.07 4.9 12.07 11 11.77s11.58-5.71 10.29-11.68a22.207 22.207 0 0 0 24.03-3.99c6.25-5.96 9.19-15.47 5.95-23.46q-41.025.4-81.93 4.23-6.165.555-12.32 1.22h-.01z" fill="#fad6c6"/><path d="m16 440 176 32h4.34l7.83-17.12-188.17-54.88z" fill="#be202e"/><path d="m496 488-271.71-15.98 8.54-16.02h7.17l256-16z" fill="#e22526"/><g><path d="m355.2 244.78q-6.164.555-12.316 1.22h-.01l-136.314 24.1q-16.68 4.155-33.22 8.9a35.362 35.362 0 0 1 12.61 29.31c11.3-1.3 22.6-2.61 30.05-4.31l8 31.99v.01a20.313 20.313 0 0 0 -1.01 1.861c25.287 5.856 59.616 4.962 83.2-1.811-.734-.04-1.457-.05-2.191-.05 0-24 0-32 9.12-47.13 13.63-4.34 27.25-7.98 40.88-11.71 5.158-8.278 5.401-23.306 1.201-32.38z" fill="#dae3e8"/><path d="m222.99 337.861c-3.036 5.877-12.223 24.386-18.024 36.1 9.213-.944 25.693 6.914 35.91 16.807 8.315-11.651 20.469-21.174 31.124-22.768 13.23 0 27.34 2.63 40.29 6.14a40.944 40.944 0 0 1 22.12-30.73c-8.91-4.13-18.33-6.99-28.19-7.36h-.029c-23.585 6.773-57.914 7.667-83.201 1.811z" fill="#333"/><g><path d="m202.213 475.257a20.183 20.183 0 0 0 7.214-3.017 54.262 54.262 0 0 0 22.223-27.287c-7.472 3.516-15.85 5.125-23.65 3.047 0 0-1.7 2.9-3.83 6.88-2.7 5.02-6.1 11.76-7.67 16.61-.05.17-.11.34-.16.51-.214.7-.407 1.419-.563 2.147a9.521 9.521 0 0 0 6.436 1.11z" fill="#333"/><path d="m231.65 444.953a54.262 54.262 0 0 1 -22.223 27.287 20.183 20.183 0 0 1 -7.214 3.017 9.521 9.521 0 0 1 -6.436-1.11c-.59 2.746-.621 5.6 1.063 7.723 2.59 3.28 7.62 2.92 11.66 1.87 6.83-1.78 11.79-6.12 15.79-11.72a89.515 89.515 0 0 0 8.54-16.02c2.39-5.43 4.63-10.98 7.17-16a51.1 51.1 0 0 1 -8.35 4.953z" fill="#dae3e8"/></g><g><path d="m400 376h-16a54.71 54.71 0 0 0 -24 16c3.156 7.309 4.992 13.465 9.239 18.438a331.55 331.55 0 0 1 49.712-32.038c-5.981-2.4-15.561-2.4-18.951-2.4z" fill="#333"/><path d="m418.951 378.4a331.55 331.55 0 0 0 -49.712 32.043 25.382 25.382 0 0 0 6.761 5.557l48-32c0-2.651-2.085-4.42-5.049-5.6z" fill="#dae3e8"/></g></g><g><path d="m222.99 337.861c-3.036 5.877-12.223 24.386-18.024 36.1 9.213-.944 25.693 6.914 35.91 16.807 8.315-11.651 20.469-21.174 31.124-22.768 13.23 0 27.34 2.63 40.29 6.14a40.944 40.944 0 0 1 22.12-30.73c-8.91-4.13-18.33-6.99-28.19-7.36h-.029c-23.585 6.773-57.914 7.667-83.201 1.811z" fill="#333"/><g><path d="m202.213 475.257a20.183 20.183 0 0 0 7.214-3.017 54.262 54.262 0 0 0 22.223-27.287c-7.472 3.516-15.85 5.125-23.65 3.047 0 0-1.7 2.9-3.83 6.88-2.7 5.02-6.1 11.76-7.67 16.61-.05.17-.11.34-.16.51-.214.7-.407 1.419-.563 2.147a9.521 9.521 0 0 0 6.436 1.11z" fill="#333"/><path d="m231.65 444.953a54.262 54.262 0 0 1 -22.223 27.287 20.183 20.183 0 0 1 -7.214 3.017 9.521 9.521 0 0 1 -6.436-1.11c-.59 2.746-.621 5.6 1.063 7.723 2.59 3.28 7.62 2.92 11.66 1.87 6.83-1.78 11.79-6.12 15.79-11.72a89.515 89.515 0 0 0 8.54-16.02c2.39-5.43 4.63-10.98 7.17-16a51.1 51.1 0 0 1 -8.35 4.953z" fill="#dae3e8"/></g><g><path d="m400 376h-16a54.71 54.71 0 0 0 -24 16c3.156 7.309 4.992 13.465 9.239 18.438a331.55 331.55 0 0 1 49.712-32.038c-5.981-2.4-15.561-2.4-18.951-2.4z" fill="#333"/><path d="m418.951 378.4a331.55 331.55 0 0 0 -49.712 32.043 25.382 25.382 0 0 0 6.761 5.557l48-32c0-2.651-2.085-4.42-5.049-5.6z" fill="#dae3e8"/></g><g fill="#b0bbbf"><path d="m355.2 244.78q-6.164.555-12.316 1.22h-.01l-136.314 24.1q-16.68 4.155-33.22 8.9a34.623 34.623 0 0 1 8.434 10.36 931.177 931.177 0 0 1 176.262-32.294 35.062 35.062 0 0 0 -2.836-12.286z"/><path d="m216.192 304.769 7.808 31.221v.01a20.313 20.313 0 0 0 -1.01 1.861c4.2.972 8.645 1.753 13.249 2.357l-4.983-36.846z"/></g></g><circle cx="256" cy="152" fill="#fad6c6" r="128"/><circle cx="248" cy="208" fill="#f78663" r="16"/><circle cx="352" cy="216" fill="#f78663" r="16"/><path d="m272 184a8 8 0 0 1 -8-8v-8a8 8 0 0 1 16 0v8a8 8 0 0 1 -8 8z" fill="#683b11"/><path d="m250 254.2c-30.6-5.764-60.283-18.766-83.028-40.034-21.147-19.774-35.838-47.046-38.243-75.8a129.322 129.322 0 0 0 -.729 13.634 128 128 0 0 0 207.51 100.309 209.736 209.736 0 0 1 -85.51 1.891z" fill="#eaaa94"/><path d="m353 184a8 8 0 0 1 -8-8v-8a8 8 0 0 1 16 0v8a8 8 0 0 1 -8 8z" fill="#683b11"/><path d="m311.705 207.14a23.709 23.709 0 0 1 -3.12-.209 21.374 21.374 0 0 1 -15.461-9.606 8 8 0 1 1 13.556-8.5 6.27 6.27 0 0 0 8.5 1.136 8 8 0 0 1 10.849 11.76 20.991 20.991 0 0 1 -14.324 5.419z" fill="#f99c78"/><g><path d="m152.644 141.21c10.16-31.541 33.623-58.335 63.027-73.613s64.351-19.127 96.659-11.766a150.132 150.132 0 0 1 45.587 18.734 128 128 0 0 0 -208.574 148.214c2.007-.506 3.993-1.091 5.969-1.712a118.953 118.953 0 0 1 -2.668-79.857z" fill="#464746"/><path d="m357.917 74.565a150.132 150.132 0 0 0 -45.587-18.734c-32.308-7.361-67.255-3.512-96.659 11.766s-52.871 42.072-63.027 73.613a118.953 118.953 0 0 0 2.668 79.857 111.7 111.7 0 0 0 29.128-14.087 35.783 35.783 0 0 1 -23.13-53.05c3.45-5.87 9.45-11.04 16.24-10.57 5.09.35 9.43 3.75 12.99 7.4a68.532 68.532 0 0 1 17.96 34.16c1.65-2.05 3.23-4.15 4.73-6.32 16.19-23.37 25.15-54.1 20.42-82.14a137.1 137.1 0 0 0 88.55 32.75 136.452 136.452 0 0 0 56.83-12.63 127.554 127.554 0 0 0 -21.113-42.015z" fill="#5d5f5d"/></g></g></svg>