<svg height="512" viewBox="0 0 512 512" width="512" xmlns="http://www.w3.org/2000/svg"><g><g fill="#fad6c6"><path d="m353.7 299.741a16.3 16.3 0 1 0 -24.614 20.928l-.864.906c-5.792 6.077-4.683 13.439-7.991 21.155-1.5-18.011-19.934-41.481-32.228-54.73.4 12.954 4.565 32.805.416 45.084 4.344 13.632 8.174 25.793 16.1 37.706 4.359 6.551 10.64 12.88 18.5 13.162 5.5.2 10.767-2.731 14.478-6.793s6.067-9.167 8.024-14.309c7.36-19.331 19.368-45.714 8.179-63.109z"/><path d="m189.059 377.462c2.857 18.474 20.2 32.9 38.8 34.8s37.321-7.424 49.208-21.851 17.432-33.34 18.126-52.02c.588-15.835-2.305-32.223-11.009-45.464-14.755-22.445-58.821-34.286-69.507-1.583-4.147 12.688-4.942 24.506-11.059 36.876-7.544 15.253-17.302 31.508-14.559 49.242z"/><path d="m316.307 468a179.942 179.942 0 0 0 -39.027-81.655c-7.465-1.6-15.639-3.682-23.153-2.322s-14.886 6.442-16.552 13.9c-2.072 9.267 4.9 17.871 11.283 24.906q26.685 29.424 50.847 61.009c-.366 2.89.272 6.963 2.956 8.094s5.724.982 8.614.612a62.719 62.719 0 0 0 32.078-14.031 20.167 20.167 0 0 0 5.111-5.776 8.673 8.673 0 0 0 .575-7.474c-2.016-4.487-8.065-5.307-12.927-4.556-7.419 1.145-14.2 2.303-19.805 7.293z"/></g><path d="m277.28 386.35q3.705 4.38 7.1 8.99a93.552 93.552 0 0 1 -38.27 24.37c-5.44-6.4-10.31-13.85-8.54-21.79 1.67-7.45 9.04-12.53 16.56-13.89s15.68.72 23.15 2.32z" fill="#35495e"/><path d="m348.46 472.74a20.088 20.088 0 0 1 -5.11 5.77 62.62 62.62 0 0 1 -32.08 14.03c-2.88.37-5.92.52-8.61-.61-2.29-.97-3.09-4.07-3.04-6.76a15.735 15.735 0 0 0 16.95-17.4c5.55-4.8 12.23-5.94 19.54-7.06 4.86-.75 10.91.06 12.93 4.55a8.661 8.661 0 0 1 -.58 7.48z" fill="#fcc200"/><path d="m294.774 338.388q-.029 1.029-.064 2.062c-.115 3.322-4.072 36.5-8.52 35.68a353.6 353.6 0 0 1 -91.28-30.17c2.69-6.07 5.85-11.98 8.7-17.74 6.12-12.37 6.92-24.18 11.06-36.87 3.89-11.88 12.18-17.89 21.87-19.63a104.845 104.845 0 0 1 8.81 28.15c1.16 7.13 1.91 15.07 7.21 19.99 7.466 6.931 20.08 5.086 22.167-4.914a65.233 65.233 0 0 0 -.023-26.376c-.6-2.891-3.313-7.568-.5-9.194 2.847-1.646 9.335 4.2 10.852 6.037 3.376 4.1 5.066 9.309 6.35 14.461 3.183 12.79 3.73 25.464 3.368 38.514z" fill="#00a8e7"/><path d="m190.1 383.751c-3.46 9.265-1.4 23.47-.1 32.045-19.759 8.446-32.807 11.364-46.021 27.355-19.288 0-19.623 18.98-9.979 36.808 0 0 8 16.041 16 16.041 8.637 0 16-16.041 8-32.082 27.376-.742 50.98-9.811 64-32.081 4.693-8.027 17.044-34.7 15.566-43.716s-8.3-17.651-17.9-19.795c-9.079-2.028-22.338 4.107-27.586 11.583a17.04 17.04 0 0 0 -1.98 3.842z" fill="#fad6c6"/><path d="m158.41 464.77c7.33 15.75.08 31.23-8.41 31.23-8 0-16-16.04-16-16.04-9.36-17.3-9.32-35.69 8.32-36.75a19.487 19.487 0 0 0 5.05 14.26 29.658 29.658 0 0 0 11.04 7.3z" fill="#fcc200"/><path d="m227.28 421.49a47.6 47.6 0 0 0 -38.19-12.11c-1.03-8.21-1.68-18.41 1.01-25.63a17.168 17.168 0 0 1 1.98-3.84c5.25-7.48 18.51-13.61 27.59-11.58 9.59 2.14 16.42 10.77 17.9 19.79 1.06 6.49-5.04 22.12-10.29 33.37z" fill="#35495e"/><path d="m286.19 376.13a72.754 72.754 0 0 1 -9.13 14.28c-11.88 14.43-30.61 23.76-49.21 21.86s-35.93-16.33-38.79-34.81c-1.7-11.03 1.43-21.49 5.85-31.5a353.6 353.6 0 0 0 91.28 30.17z" fill="#35495e"/><path d="m219.944 288.14a97.176 97.176 0 0 0 -68.436 25.517c1.529 16.274 1.812 32.812 3.342 49.085-5.016 5.335-4.95 15.4.183 20.619s13.673 6.291 20.386 3.367 11.558-9.32 13.6-16.352 1.5-14.625-.438-21.686-5.224-13.673-8.682-20.128l.441 2.276c13.1-3.415 23.059-10.318 34.944-16.8 3.5-1.909 7-4 9.591-7.021s4.185-7.163 3.269-11.041-4.218-7.704-8.2-7.836z" fill="#fad6c6"/><circle cx="256" cy="160" fill="#fad6c6" r="136"/><path d="m243.4 254.022c-43.224-20.4-74.02-64.98-77.806-112.627-3.14-39.506 12.4-79.848 40.294-107.86a136.014 136.014 0 1 0 144.6 224.271c-34.325 12.815-73.882 11.894-107.088-3.784z" fill="#eaaa94"/><path d="m226.04 115.13c5.44 30.74-.39 64.27-14.54 92.1a146.364 146.364 0 0 1 -46.83 53.55 136.005 136.005 0 1 1 183.77-200.54 332.39 332.39 0 0 1 -157.81 39.37c10.71 9.52 21.19 13.81 35.41 15.52z" fill="#683b11"/><path d="m440 72c-26.183-7.722-52.7-15.931-80-16-25.512 22.064-62.488 41.936-88 64 56.031-3.268 119.564-19.643 168-48z" fill="#e22526"/><path d="m360 56c-69.831 58.983-154.786 119.078-232 168-8-16-16-32-16-48 76.707-38.2 155.745-91.51 215.882-152.556-.382-.861 29.512 32.671 32.118 32.556z" fill="#fcc200"/><path d="m213.855 134.36a45.759 45.759 0 0 0 -34.595-8.931c-9.465 1.468-18.788 6.387-23.607 14.665-6.5 11.172-3.259 26.089 4.9 36.112s20.285 15.968 32.465 20.3c8.433 3 17.766 5.364 26.206 2.386a22.482 22.482 0 0 0 13.762-14.292c4.897-15.743-6.792-40.679-19.131-50.24z" fill="#fad6c6"/><path d="m336 160a8 8 0 0 1 -8-8v-8a8 8 0 0 1 16 0v8a8 8 0 0 1 -8 8z" fill="#683b11"/><path d="m392 168h-8a8 8 0 0 1 0-16h8a8 8 0 0 1 0 16z" fill="#fad6c6"/><circle cx="304" cy="200" fill="#f78663" r="32"/><path d="m372.546 209.541a34.55 34.55 0 0 1 -15.233-3.49 8 8 0 0 1 7.06-14.358 19.241 19.241 0 0 0 18.928-1.417 8 8 0 1 1 9.118 13.147 34.957 34.957 0 0 1 -19.873 6.118z" fill="#f99c78"/></g></svg>