<svg id="Flat" enable-background="new 0 0 512 512" height="512" viewBox="0 0 512 512" width="512" xmlns="http://www.w3.org/2000/svg"><g><g fill="#35495e"><path d="m168 504c-4.4179688 0-8-3.581543-8-8v-48c0-4.418457 3.5820313-8 8-8s8 3.581543 8 8v48c0 4.418457-3.5820312 8-8 8z"/><path d="m40 471c-4.4179688 0-8-3.581543-8-8v-47c0-4.418457 3.5820313-8 8-8s8 3.581543 8 8v47c0 4.418457-3.5820312 8-8 8z"/><path d="m344 504c-4.4179688 0-8-3.581543-8-8v-48c0-4.418457 3.5820313-8 8-8s8 3.581543 8 8v48c0 4.418457-3.5820312 8-8 8z"/><path d="m472 471c-4.4179688 0-8-3.581543-8-8v-47c0-4.418457 3.5820313-8 8-8s8 3.581543 8 8v47c0 4.418457-3.5820312 8-8 8z"/></g><path d="m24 376v32c0 30.927948 103.8699417 56 232 56s232-25.072052 232-56v-32z" fill="#00a8e7"/><ellipse cx="256" cy="376" fill="#e22526" rx="232" ry="56"/><ellipse cx="256" cy="376" fill="#35495e" rx="168" ry="32"/><path d="m191.1098633 262.2199707-7.1098633 1.7800293-15.5200195 10.3499756c-2.1000977 1.4000244-4.5 2.0800171-6.8898926 2.0800171-3.2102051 0-6.4001465-1.2399902-8.8000488-3.6400146-4.8500977-4.8499756-4.8500977-12.7299805 0-17.5800171l23.2099609-23.209961z" fill="#fad6c6"/><path d="m326.8598633 221.7099609-6.1000977 30.4800415-16.7597656-4.1900024-8 16-72 8-8-16-24.8901367 6.2199707-15.1098633-30.2199707 32-16h96z" fill="#f249b4"/><path d="m337.6801758 308.6300049-9.6801758 19.3699951-25.8999023-6.4800415 1.8999023-9.5199585-32-16-32.5600586 39.0700073c-4.4399414 5.3299561-11.7998047 7.1900024-18.2299805 4.6099854l-29.2099609-11.6799927 8-24 24 8-8-16c-1.2900391-2.5700073-1.8901367-5.2999878-1.8901367-7.9899902 0-6.5599976 3.6201172-12.8800049 9.8901367-16.0100098l72-8 36.25 24.1699829c6.7099609 4.4700317 9.0400391 13.25 5.4301758 20.460022z" fill="#ddf216"/><path d="m200 304-8 24-18.7800293 12.5199585c-1.3000488.8600464-2.7800293 1.2800293-4.25 1.2800293-1.9699707 0-3.9299316-.7600098-5.3999023-2.2299805-2.170166-2.1700439-2.8300781-5.4100342-1.6999512-8.25l14.1298828-35.3200073z" fill="#fad6c6"/><path d="m341.6000977 350.9400024c0 2.1499634-.8300781 4.289978-2.4399414 5.8999634-1.9702148 1.9700317-4.800293 2.8300171-7.5400391 2.2800293l-35.6201172-7.1199951 6.1000977-30.4800415 25.8999023 6.4800415 12.2001953 18.2999878c.9399414 1.4199829 1.3999024 3.0299683 1.3999024 4.6400146z" fill="#fad6c6"/><path d="m364.1499023 244.7399902-28.1499023 11.2600098-15.2402344-3.8099976 6.1000977-30.4800415 9.1401367 2.2900391 19.8398438-4.960022c1.1000977-.2799683 2.2099609-.4099731 3.2900391-.4099731 5.7001953 0 10.9599609 3.6300049 12.8300781 9.2600098 2.2700195 6.7999877-1.1601563 14.1899414-7.8100587 16.8499755z" fill="#fad6c6"/><g><g><path d="m192 80-28.4615326-27.7157593c-15.4827271-15.6209526-40.5852127-15.6209526-56.0679474.0000038l-.0000381.0000381c-7.4350739 7.5014497-11.6120529 17.6755944-11.6120529 28.2842446v32.8040771c0 14.4880753-5.7044449 28.3827667-15.8584137 38.6273804l-.0000153.0000153h25.1481018c14.3598862 0 28.1316223-5.7553711 38.2855988-15.9999847l.0000152-.0000153h48.5662842z" fill="#5b0b3c"/></g><g><path d="m184 160h-20.0000153c-11.0456848 0-19.9999847-8.9542999-19.9999847-19.9999847v-.0000305c0-11.0456849 8.9542999-19.9999848 19.9999847-19.9999848h20.0000153z" fill="#eaaa94"/><path d="m328 120h20.0000305c11.0456848 0 19.9999695 8.9542999 19.9999695 19.9999847v.0000305c0 11.0456849-8.9542847 19.9999848-19.9999695 19.9999848h-20.0000305z" fill="#eaaa94"/><path d="m160 120c0-9.5400391 1.3901367-18.75 3.9799805-27.4400024 4.6101074-15.4800415 13.0100098-29.3200073 24.1401367-40.4400024 17.369873-17.380005 41.369873-28.1199952 67.8798828-28.1199952s50.5100098 10.7399902 67.8798828 28.1199951c11.130127 11.1199951 19.5300293 24.9599609 24.1401367 40.4400024 2.5898438 8.6900025 3.9799805 17.8999634 3.9799805 27.4400025z" fill="#fbc6ea"/><path d="m338.0500488 112.1099854c-.0100098-.0100098-.0100098-.0100098-.0100098-.0100098-12.7800292-32.8299561-44.6899413-56.0999756-82.040039-56.0999756-37.8901367 0-70.1899414 23.9499512-82.5800781 57.5400391-3.5100098 9.4899902-5.4199219 19.75-5.4199219 30.4599609 0 48.5999756 39.3999023 88 88 88s88-39.4000244 88-88c0-11.25-2.1098633-22-5.9499512-31.8900146z" fill="#fad6c6"/><path d="m216 184c0 12.1099854-8.9799805 22.1300049-20.6499023 23.7600098-10.630127-10.1100464-18.7299805-22.8500366-23.25-37.1700439 4.3098144-6.3899537 11.619873-10.5899659 19.8999023-10.5899659 13.25 0 24 10.75 24 24z" fill="#f48da1"/><path d="m339.8999023 170.5899658c-4.5200195 14.3200073-12.619873 27.0599976-23.25 37.1700439-11.6699218-1.6300048-20.6499023-11.6500243-20.6499023-23.7600097 0-13.25 10.75-24 24-24 8.2800293 0 15.5900879 4.2000122 19.8999023 10.5899658z" fill="#f48da1"/><g fill="#5b0b3c"><path d="m344 118.3983307c-6.2651978-8.1862946-14.1124268-14.7264481-22.9006348-19.2867279-9.3762817-4.8828812-19.8323975-7.518959-30.5985718-7.518959l-17.1060486-17.7963181-17.1060486 17.7963181h-25.6590881c-23.9055633-.0000001-46.5605773 10.3996963-62.6296081 28.4073562 13.2466431-37.3611145 47.7792816-64 88.2886963-64 39.9320373 0 74.047821 25.8824768 87.7113037 62.3983307z"/><path d="m296 120h16v16h-16z"/><path d="m200 120h16v16h-16z"/></g><path d="m271.9999695 144v.0000153c-10.0722351 5.0361023-21.9277496 5.0361023-31.9999695 0l-.0000153-.0000153v8.0000153c0 8.8365479 7.1634369 15.9999847 15.9999847 15.9999847h.0000306c8.8365479 0 15.9999695-7.1634369 15.9999695-15.9999847z" fill="#e22526"/></g></g></g></svg>