<svg id="Flat" enable-background="new 0 0 512 512" height="512" viewBox="0 0 512 512" width="512" xmlns="http://www.w3.org/2000/svg"><g><path d="m24 448v-104.0000305c0-22.0913696 17.9085922-39.9999695 39.9999619-39.9999695h.0000763c22.0913696 0 39.9999618 17.9085999 39.9999618 39.9999695v104.0000305z" fill="#fcc200"/><path d="m488 368v120h-424c-22.0900879 0-40-17.9101563-40-40 0-22.0900879 17.9099121-40 40-40 2.7399902 0 5.4099121.2800293 8 .8000488 18.2600098 3.709961 32 19.8498535 32 39.1999512v-80z" fill="#f98800"/><path d="m296 296 24 40-8 48 16 16v8h-40v-40-16l-48-32h-64l-48-16-40-40-32-8 32-16 40 24 56 8 16-16h24l24-40 48 16 56 16 56-8 32 8-32 24h-40-56l-15.9999695 24" fill="#fad6c6"/><g><path d="m248 216 56 32h48v-16z" fill="#dd738c"/><path d="m408 224-56 8v16l56-8 24 8 8-16z" fill="#eaaa94"/></g><g><path d="m224 256h-24l-16 16-56-8-9.5239258-5.7143555-14.4760742 21.7143555 24 24 48 16h64l48 32v16h26.666748l5.333252-32-24-40-20.2229004-8c-21.9265137 0-41.9711914-12.3881836-51.7770996-32z" fill="#00a8e7"/><path d="m296 232-48-16-24 40c9.8059082 19.6118164 29.8505859 32 51.7770996 32l20.2229004 8h.0000305c13.2548218 0 23.9999695-10.7451477 23.9999695-23.9999695v-.0000305h8.0817871l13.4897461-26.9794922z" fill="#f48da1"/><path d="m408 240-56 8-10.4284668-2.9794922-13.4897461 26.9794922h39.9182129 56l16-24z" fill="#fad6c6"/></g><path d="m296 304c-17.6445313 0-32-14.3554688-32-32h16c0 8.8222656 7.1777344 16 16 16s16-7.1777344 16-16h16c0 17.6445313-14.3554687 32-32 32z" fill="#ea819a"/><path d="m320 288-8-8c-1.5791016 0-3.1230469-.4677734-4.4375-1.34375l-24-16 8.875-13.3125 21.984375 14.65625 13.578125 8z" fill="#ea819a"/><g><g><path d="m232 80-28.4615326-27.7157593c-15.4827271-15.6209526-40.5852051-15.6209526-56.0679474.0000038l-.0000458.0000381c-7.4350586 7.5014496-11.6120453 17.6755943-11.6120453 28.2842445v32.8040771c0 14.4880753-5.7044373 28.3827667-15.8584137 38.6273804l-.0000152.0000154h25.1481018c14.3598785 0 28.1316223-5.7553711 38.2855988-15.9999847l.0000152-.0000153h48.5662842z" fill="#5b0b3c"/></g><g><path d="m224 160h-20.0000153c-11.0456848 0-19.9999847-8.9542999-19.9999847-19.9999847v-.0000305c0-11.0456849 8.9542999-19.9999848 19.9999847-19.9999848h20.0000153z" fill="#eaaa94"/><path d="m368 120h20.0000305c11.0456848 0 19.9999695 8.9542999 19.9999695 19.9999847v.0000305c0 11.0456849-8.9542847 19.9999848-19.9999695 19.9999848h-20.0000305z" fill="#eaaa94"/><path d="m200 120c0-9.5400391 1.3901367-18.75 3.9799805-27.4400024 4.6101074-15.4800415 13.0100098-29.3200073 24.1401367-40.4400024 17.369873-17.380005 41.369873-28.1199952 67.8798828-28.1199952s50.5100098 10.7399902 67.8798828 28.1199951c11.130127 11.1199951 19.5300293 24.9599609 24.1401367 40.4400024 2.5898438 8.6900025 3.9799805 17.8999634 3.9799805 27.4400025z" fill="#f48da1"/><path d="m378.0500488 112.1099854c-.0100098-.0100098-.0100098-.0100098-.0100098-.0100098-12.7800292-32.8299561-44.6899413-56.0999756-82.040039-56.0999756-37.8901367 0-70.1899414 23.9499512-82.5800781 57.5400391-3.5100098 9.4899902-5.4199219 19.75-5.4199219 30.4599609 0 48.5999756 39.3999023 88 88 88s88-39.4000244 88-88c0-11.25-2.1098633-22-5.9499512-31.8900146z" fill="#fad6c6"/><path d="m256 184c0 12.1099854-8.9799805 22.1300049-20.6499023 23.7600098-10.630127-10.1100464-18.7299805-22.8500366-23.25-37.1700439 4.3098144-6.3899537 11.619873-10.5899659 19.8999023-10.5899659 13.25 0 24 10.75 24 24z" fill="#f48da1"/><path d="m379.8999023 170.5899658c-4.5200195 14.3200073-12.619873 27.0599976-23.25 37.1700439-11.6699218-1.6300048-20.6499023-11.6500243-20.6499023-23.7600097 0-13.25 10.75-24 24-24 8.2800293 0 15.5900879 4.2000122 19.8999023 10.5899658z" fill="#f48da1"/><g fill="#5b0b3c"><path d="m384 118.3983307c-6.2651978-8.1862946-14.1124268-14.7264481-22.9006348-19.2867279-9.3762817-4.8828812-19.8323975-7.518959-30.5985718-7.518959l-17.1060486-17.7963181-17.1060486 17.7963181h-25.6590881c-23.9055633-.0000001-46.5605773 10.3996963-62.6296081 28.4073562 13.2466431-37.3611145 47.7792816-64 88.2886963-64 39.9320373 0 74.047821 25.8824768 87.7113037 62.3983307z"/><path d="m336 120h16v16h-16z"/><path d="m240 120h16v16h-16z"/></g><path d="m311.9999695 144v.0000153c-10.0722351 5.0361023-21.9277344 5.0361023-31.9999695 0l-.0000305-.0000153v8.0000153c0 8.8365479 7.1634521 15.9999847 16 15.9999847h.0000305c8.8365479 0 15.9999695-7.1634369 15.9999695-15.9999847z" fill="#e22526"/></g></g><path d="m104 448c0 8.8398438-7.1599121 16-16 16s-16-7.1601563-16-16v-39.1999512c18.2600098 3.709961 32 19.8498535 32 39.1999512z" fill="#f4cb6e"/></g></svg>